# xmcd CD database file
#
# Track frame offsets:
#	150
#	15272
#	28107
#	42137
#	56275
#	66812
#	87020
#	97855
#	117010
#	129875
#
# Disc length: 1926 seconds
#
# Revision: 3
# Processed by: cddbd v1.4PL0 Copyright (c) Steve Scherf et al.
# Submitted via: CDex 1.50Beta6
#
DISCID=6607840a,6c07840a
DTITLE=George Strait - Ocean Front Property
DYEAR=1987
DGENRE=Country
TTITLE0=All My Ex's Live in Texas
TTITLE1=Someone's Walkin' Around Upstairs
TTITLE2=Am I Blue
TTITLE3=Ocean Front Property
TTITLE4=Hot Burning Flames
TTITLE5=Without You Here
TTITLE6=My Heart Won't Wander Very Far From You
TTITLE7=Second Chances
TTITLE8=You Can't Buy Your Way Out of the Blues
TTITLE9=I'm All Behind You Now
EXTD=YEAR: 1987
EXTT0=
EXTT1=
EXTT2=
EXTT3=
EXTT4=
EXTT5=
EXTT6=
EXTT7=
EXTT8=
EXTT9=
PLAYORDER=
